<mxfile host="app.diagrams.net" agent="Mozilla/5.0 (Windows NT 10.0; Win64; x64) AppleWebKit/537.36 (KHTML, like Gecko) Chrome/139.0.0.0 Safari/537.36" version="27.0.2">
  <diagram name="Page-1" id="ttUAvkOM0rH3q_tocDGd">
    <mxGraphModel dx="1097" dy="608" grid="1" gridSize="10" guides="1" tooltips="1" connect="1" arrows="1" fold="1" page="1" pageScale="1" pageWidth="3150" pageHeight="2362" background="none" math="0" shadow="0">
      <root>
        <mxCell id="0" />
        <mxCell id="1" parent="0" />
        <mxCell id="Ntpb4qp-f62NBD71DLnf-2" value="&lt;font style=&quot;font-size: 20px;&quot;&gt;CI/CD Pipeline 101&lt;/font&gt;" style="rounded=1;whiteSpace=wrap;html=1;arcSize=23;fillColor=#ffe6cc;fillStyle=solid;strokeColor=#d79b00;" vertex="1" parent="1">
          <mxGeometry x="410" y="20" width="270" height="40" as="geometry" />
        </mxCell>
        <mxCell id="Ntpb4qp-f62NBD71DLnf-3" value="" style="dashed=0;outlineConnect=0;html=1;align=center;labelPosition=center;verticalLabelPosition=bottom;verticalAlign=top;shape=mxgraph.weblogos.github" vertex="1" parent="1">
          <mxGeometry x="87.5" y="110" width="50" height="50" as="geometry" />
        </mxCell>
        <mxCell id="Ntpb4qp-f62NBD71DLnf-4" value="&lt;font&gt;React JS / Node JS Project&lt;/font&gt;&lt;div&gt;&lt;font&gt;By creating a new repo on Github&lt;/font&gt;&lt;/div&gt;" style="rounded=1;whiteSpace=wrap;html=1;arcSize=23;fillColor=none;fillStyle=solid;strokeColor=none;fontSize=16;align=left;" vertex="1" parent="1">
          <mxGeometry x="180" y="100" width="270" height="70" as="geometry" />
        </mxCell>
        <mxCell id="Ntpb4qp-f62NBD71DLnf-5" value="&lt;font style=&quot;font-size: 20px;&quot;&gt;Infrastructure&lt;/font&gt;" style="rounded=1;whiteSpace=wrap;html=1;arcSize=23;fillColor=#ffe6cc;fillStyle=solid;strokeColor=#d79b00;" vertex="1" parent="1">
          <mxGeometry x="412.5" y="220" width="270" height="40" as="geometry" />
        </mxCell>
        <mxCell id="Ntpb4qp-f62NBD71DLnf-10" value="" style="sketch=0;points=[[0,0,0],[0.25,0,0],[0.5,0,0],[0.75,0,0],[1,0,0],[0,1,0],[0.25,1,0],[0.5,1,0],[0.75,1,0],[1,1,0],[0,0.25,0],[0,0.5,0],[0,0.75,0],[1,0.25,0],[1,0.5,0],[1,0.75,0]];outlineConnect=0;fontColor=#232F3E;fillColor=#ED7100;strokeColor=#ffffff;dashed=0;verticalLabelPosition=bottom;verticalAlign=top;align=center;html=1;fontSize=12;fontStyle=0;aspect=fixed;shape=mxgraph.aws4.resourceIcon;resIcon=mxgraph.aws4.ec2;" vertex="1" parent="1">
          <mxGeometry x="80" y="400" width="40" height="40" as="geometry" />
        </mxCell>
        <mxCell id="Ntpb4qp-f62NBD71DLnf-17" value="EC2 - m7i-flex.large - Ubuntu" style="rounded=1;whiteSpace=wrap;html=1;arcSize=23;fillColor=#d5e8d4;fillStyle=solid;strokeColor=#82b366;fontSize=16;align=center;gradientColor=#97d077;" vertex="1" parent="1">
          <mxGeometry x="140" y="405" width="230" height="30" as="geometry" />
        </mxCell>
        <mxCell id="Ntpb4qp-f62NBD71DLnf-20" value="&lt;ol&gt;&lt;li&gt;JDK 21&lt;/li&gt;&lt;li&gt;Jenkins&lt;/li&gt;&lt;li&gt;SSH remote access key&lt;/li&gt;&lt;li&gt;Port&amp;nbsp; 8080 &amp;amp; 22&lt;/li&gt;&lt;/ol&gt;" style="text;strokeColor=none;fillColor=none;html=1;whiteSpace=wrap;verticalAlign=middle;overflow=hidden;fontSize=16;" vertex="1" parent="1">
          <mxGeometry x="140" y="440" width="230" height="110" as="geometry" />
        </mxCell>
        <mxCell id="Ntpb4qp-f62NBD71DLnf-23" value="" style="edgeStyle=orthogonalEdgeStyle;rounded=0;orthogonalLoop=1;jettySize=auto;html=1;" edge="1" parent="1" source="Ntpb4qp-f62NBD71DLnf-21" target="Ntpb4qp-f62NBD71DLnf-22">
          <mxGeometry relative="1" as="geometry" />
        </mxCell>
        <mxCell id="Ntpb4qp-f62NBD71DLnf-21" value="" style="image;aspect=fixed;perimeter=ellipsePerimeter;html=1;align=center;shadow=0;dashed=0;spacingTop=3;image=img/lib/active_directory/generic_server.svg;" vertex="1" parent="1">
          <mxGeometry x="86" y="330" width="28.000000000000004" height="50" as="geometry" />
        </mxCell>
        <mxCell id="Ntpb4qp-f62NBD71DLnf-22" value="Server" style="whiteSpace=wrap;html=1;verticalAlign=top;labelBackgroundColor=default;shadow=0;dashed=0;spacingTop=3;fontSize=20;fillColor=#cce5ff;strokeColor=#36393d;" vertex="1" parent="1">
          <mxGeometry x="147.5" y="332.5" width="120" height="45" as="geometry" />
        </mxCell>
        <mxCell id="Ntpb4qp-f62NBD71DLnf-24" value="" style="sketch=0;points=[[0,0,0],[0.25,0,0],[0.5,0,0],[0.75,0,0],[1,0,0],[0,1,0],[0.25,1,0],[0.5,1,0],[0.75,1,0],[1,1,0],[0,0.25,0],[0,0.5,0],[0,0.75,0],[1,0.25,0],[1,0.5,0],[1,0.75,0]];outlineConnect=0;fontColor=#232F3E;fillColor=#ED7100;strokeColor=#ffffff;dashed=0;verticalLabelPosition=bottom;verticalAlign=top;align=center;html=1;fontSize=12;fontStyle=0;aspect=fixed;shape=mxgraph.aws4.resourceIcon;resIcon=mxgraph.aws4.ec2;" vertex="1" parent="1">
          <mxGeometry x="420" y="400" width="40" height="40" as="geometry" />
        </mxCell>
        <mxCell id="Ntpb4qp-f62NBD71DLnf-25" value="EC2 - m7i-flex.large - Ubuntu" style="rounded=1;whiteSpace=wrap;html=1;arcSize=23;fillColor=#d5e8d4;fillStyle=solid;strokeColor=#82b366;fontSize=16;align=center;gradientColor=#97d077;" vertex="1" parent="1">
          <mxGeometry x="480" y="405" width="230" height="30" as="geometry" />
        </mxCell>
        <mxCell id="Ntpb4qp-f62NBD71DLnf-26" value="&lt;ol&gt;&lt;li&gt;JDK 21&lt;/li&gt;&lt;li&gt;Docker&lt;/li&gt;&lt;li&gt;SSH remote access key&lt;/li&gt;&lt;li&gt;User group modification&lt;/li&gt;&lt;li&gt;Port 3000 / 22&lt;/li&gt;&lt;/ol&gt;" style="text;strokeColor=none;fillColor=none;html=1;whiteSpace=wrap;verticalAlign=middle;overflow=hidden;fontSize=16;" vertex="1" parent="1">
          <mxGeometry x="480" y="440" width="230" height="130" as="geometry" />
        </mxCell>
        <mxCell id="Ntpb4qp-f62NBD71DLnf-27" value="" style="edgeStyle=orthogonalEdgeStyle;rounded=0;orthogonalLoop=1;jettySize=auto;html=1;" edge="1" parent="1" source="Ntpb4qp-f62NBD71DLnf-28" target="Ntpb4qp-f62NBD71DLnf-29">
          <mxGeometry relative="1" as="geometry" />
        </mxCell>
        <mxCell id="Ntpb4qp-f62NBD71DLnf-28" value="" style="image;aspect=fixed;perimeter=ellipsePerimeter;html=1;align=center;shadow=0;dashed=0;spacingTop=3;image=img/lib/active_directory/generic_server.svg;" vertex="1" parent="1">
          <mxGeometry x="426" y="330" width="28.000000000000004" height="50" as="geometry" />
        </mxCell>
        <mxCell id="Ntpb4qp-f62NBD71DLnf-29" value="Agent" style="whiteSpace=wrap;html=1;verticalAlign=top;labelBackgroundColor=default;shadow=0;dashed=0;spacingTop=3;fontSize=20;fillColor=#cce5ff;strokeColor=#36393d;" vertex="1" parent="1">
          <mxGeometry x="487.5" y="332.5" width="120" height="45" as="geometry" />
        </mxCell>
        <mxCell id="Ntpb4qp-f62NBD71DLnf-32" value="" style="sketch=0;points=[[0,0,0],[0.25,0,0],[0.5,0,0],[0.75,0,0],[1,0,0],[0,1,0],[0.25,1,0],[0.5,1,0],[0.75,1,0],[1,1,0],[0,0.25,0],[0,0.5,0],[0,0.75,0],[1,0.25,0],[1,0.5,0],[1,0.75,0]];outlineConnect=0;fontColor=#232F3E;fillColor=#ED7100;strokeColor=#ffffff;dashed=0;verticalLabelPosition=bottom;verticalAlign=top;align=center;html=1;fontSize=12;fontStyle=0;aspect=fixed;shape=mxgraph.aws4.resourceIcon;resIcon=mxgraph.aws4.ec2;" vertex="1" parent="1">
          <mxGeometry x="780" y="400" width="40" height="40" as="geometry" />
        </mxCell>
        <mxCell id="Ntpb4qp-f62NBD71DLnf-33" value="EC2 - m7i-flex.large - Amazon Linux" style="rounded=1;whiteSpace=wrap;html=1;arcSize=23;fillColor=#d5e8d4;fillStyle=solid;strokeColor=#82b366;fontSize=16;align=center;gradientColor=#97d077;" vertex="1" parent="1">
          <mxGeometry x="840" y="405" width="280" height="30" as="geometry" />
        </mxCell>
        <mxCell id="Ntpb4qp-f62NBD71DLnf-34" value="&lt;ol&gt;&lt;li&gt;JDK 21&lt;/li&gt;&lt;li&gt;Docker&lt;/li&gt;&lt;li&gt;SSH remote access key&lt;/li&gt;&lt;li&gt;User group modification&lt;/li&gt;&lt;li&gt;Port 3000 / 22&lt;/li&gt;&lt;/ol&gt;" style="text;strokeColor=none;fillColor=none;html=1;whiteSpace=wrap;verticalAlign=middle;overflow=hidden;fontSize=16;" vertex="1" parent="1">
          <mxGeometry x="840" y="440" width="230" height="130" as="geometry" />
        </mxCell>
        <mxCell id="Ntpb4qp-f62NBD71DLnf-35" value="" style="edgeStyle=orthogonalEdgeStyle;rounded=0;orthogonalLoop=1;jettySize=auto;html=1;" edge="1" parent="1" source="Ntpb4qp-f62NBD71DLnf-36" target="Ntpb4qp-f62NBD71DLnf-37">
          <mxGeometry relative="1" as="geometry" />
        </mxCell>
        <mxCell id="Ntpb4qp-f62NBD71DLnf-36" value="" style="image;aspect=fixed;perimeter=ellipsePerimeter;html=1;align=center;shadow=0;dashed=0;spacingTop=3;image=img/lib/active_directory/generic_server.svg;" vertex="1" parent="1">
          <mxGeometry x="786" y="330" width="28.000000000000004" height="50" as="geometry" />
        </mxCell>
        <mxCell id="Ntpb4qp-f62NBD71DLnf-37" value="Agent" style="whiteSpace=wrap;html=1;verticalAlign=top;labelBackgroundColor=default;shadow=0;dashed=0;spacingTop=3;fontSize=20;fillColor=#cce5ff;strokeColor=#36393d;" vertex="1" parent="1">
          <mxGeometry x="847.5" y="332.5" width="120" height="45" as="geometry" />
        </mxCell>
        <mxCell id="Ntpb4qp-f62NBD71DLnf-44" value="" style="edgeStyle=orthogonalEdgeStyle;rounded=0;orthogonalLoop=1;jettySize=auto;html=1;" edge="1" parent="1" source="Ntpb4qp-f62NBD71DLnf-38" target="Ntpb4qp-f62NBD71DLnf-43">
          <mxGeometry relative="1" as="geometry" />
        </mxCell>
        <mxCell id="Ntpb4qp-f62NBD71DLnf-52" style="edgeStyle=orthogonalEdgeStyle;rounded=0;orthogonalLoop=1;jettySize=auto;html=1;" edge="1" parent="1" source="Ntpb4qp-f62NBD71DLnf-38" target="Ntpb4qp-f62NBD71DLnf-49">
          <mxGeometry relative="1" as="geometry" />
        </mxCell>
        <mxCell id="Ntpb4qp-f62NBD71DLnf-53" style="edgeStyle=orthogonalEdgeStyle;rounded=0;orthogonalLoop=1;jettySize=auto;html=1;entryX=0;entryY=0.5;entryDx=0;entryDy=0;" edge="1" parent="1" source="Ntpb4qp-f62NBD71DLnf-38" target="Ntpb4qp-f62NBD71DLnf-50">
          <mxGeometry relative="1" as="geometry" />
        </mxCell>
        <mxCell id="Ntpb4qp-f62NBD71DLnf-38" value="&lt;font style=&quot;font-size: 20px;&quot;&gt;Project Files&lt;/font&gt;" style="rounded=1;whiteSpace=wrap;html=1;arcSize=9;fillColor=#ffe6cc;fillStyle=solid;strokeColor=#d79b00;" vertex="1" parent="1">
          <mxGeometry x="80" y="600" width="150" height="160" as="geometry" />
        </mxCell>
        <mxCell id="Ntpb4qp-f62NBD71DLnf-43" value="Jenkins File" style="whiteSpace=wrap;html=1;fillColor=#ffe6cc;strokeColor=#d79b00;rounded=1;arcSize=23;fillStyle=solid;" vertex="1" parent="1">
          <mxGeometry x="320" y="600" width="120" height="40" as="geometry" />
        </mxCell>
        <mxCell id="Ntpb4qp-f62NBD71DLnf-49" value="Docker File" style="whiteSpace=wrap;html=1;fillColor=#ffe6cc;strokeColor=#d79b00;rounded=1;arcSize=23;fillStyle=solid;" vertex="1" parent="1">
          <mxGeometry x="320" y="660" width="120" height="40" as="geometry" />
        </mxCell>
        <mxCell id="Ntpb4qp-f62NBD71DLnf-50" value="Docker Ignore" style="whiteSpace=wrap;html=1;fillColor=#ffe6cc;strokeColor=#d79b00;rounded=1;arcSize=23;fillStyle=solid;" vertex="1" parent="1">
          <mxGeometry x="320" y="720" width="120" height="40" as="geometry" />
        </mxCell>
        <mxCell id="Ntpb4qp-f62NBD71DLnf-54" value="&lt;font style=&quot;font-size: 20px;&quot;&gt;Infrastructure As Code - IAC (through Terraform)&lt;/font&gt;" style="rounded=1;whiteSpace=wrap;html=1;arcSize=23;fillColor=#ffe6cc;fillStyle=solid;strokeColor=#d79b00;" vertex="1" parent="1">
          <mxGeometry x="426" y="800" width="454" height="40" as="geometry" />
        </mxCell>
        <mxCell id="Ntpb4qp-f62NBD71DLnf-57" value="" style="shape=image;verticalLabelPosition=bottom;verticalAlign=top;imageAspect=0;aspect=fixed;image=data:image/png,iVBORw0KGgoAAAANSUhEUgAAAHAAAACACAYAAADTcu1SAAAAAXNSR0IArs4c6QAADitJREFUeAHtnX1UlFUex5/7PDOAoiWnRGbo5G6FL7XV4lqnrFZAT6booOxOLyuD7FZmdbT3jlu5S55t/SM37XjWNirFGWpLVmEGNLUEcteOWcZmbyrlZh1mSDCtFAVmnrvfB7nwMIHAvD3PzNw5B+597jNz7+9+P3Nfnvs2gi3PveUPlubxAn9FpQIipXRWB+n4uGCu+28Lrd+dH5W5iGOjRSXvgGgUZPrw6bYzDTaL++7iYtoZHse6RE3We4GiAh2Nv5Iv6t37bPM8U6MmF3FsaC+A3TpQ4ZfUJ9ehNG68M989tjuce3SnQN8Au8xEabS2e+mBAot7uc3WlKw767lBwjkBKvpQQUjC/2XC976DADkf7SXhuulHAVJgaQSjIb32GAziktLNpveH9Cn+5rAoMGAJ7CPV67xe+h5KY+nC/GZTH/d5UAQVCAQgzFOqUbqg1ddxqDDPvXTxYpoYQZt5UioFAgTYFQOlI2RKVxw/4vkMIOep4uXeCCkQSBvYr2koljUSkR4sdaZ93O+b+I2QKhBcCfQzBb2hHK8g1xfkNf69cN4PF/jd5pdhUCCkADvto1TCs8d9su/HBgyUL8GwnCEMdvMouxQIPcAeaVPwzPj8l/We/QA5oyeY+0KpQDgBdtoJiBPxt81maawq+s3RjFAaz+MSBh6JCZVIaB9ne70dnxTmNT67eP6x80IVb7zHE/YS2EtgKiTIVHj0xMm2Bjx23MWnrXqpE9BFZAF2mYgqNRXPjy99We/+oCjPfVNAlvMPdSqgCUCmPaVCppfSXba8xtcLre6LWTh3B6+ALrr4AHmb0C6kwuycwZvO36kooGkJVCNAJ4dPU6kFGaRfNwD97cVqgMlYLWf2D+fXZxVAP4Lk5FTN0S1AFMcbOoTO2Y4nioooJpX5iymQk1M9JTu7ai+anjW6BagYiyUdyeitPuM77vncNs+dzzIQr+7MmVsvArgyWZZ3Q4PJig666MQMBATVxc8En7CpIM9dJ4jSg2UVYz4a6DOxdN9qfXdYS8t3j54541sKLYar86brEqg2tNNPaZYg+/ZhbPWFhXe4L/zJ/RgMQHVpbWk5doBSebk/PCW70QVQsRizHcjIotOttKHQ4n5g4UIsSo7B1/TpWzOzsqp2obrciPz2+4wcfQC7YKEBHyULdPXpJs/+wrmembHC8Oabt6einSvx+bwf4Ns64ChVVLSB54KDjs4EKtOtaB+3JFDjI+tcow+e6/16vWe1fprQ3Py/xR0d7X9CiRv0YH/UlsCfgKA0N1o36WRnV+c2Nx/+RBDklUOBp2gQOwCRGWQ+qjbpTJ9ePRHV5XZ0UKphfUBzpTEFkJVKVKu63qSTm1udglGU1Vhfux9fupuZ3YG4MQmwWwidbdKxWqmEx4J7W1vlBlmmD6DUBd0HiW2AXST1sEknJ2drTnNzdT0eC9aiBx2yFXtxAVDhiNkOTTbpoJ27BM9zm2XZuxNWXNldO4TIEzcAmV4AmQ4hywrnuncX5XuuYeGhdq3W2hEAt8Lno58hvbCtWo87gAwUqrHrw7FJB50SkpVVvaC5+eQhgFPGLsO6byRuAZ4FGdpNOtOmVV2PZ7r38DxXCngR2bkV5wC7ymOQm3TwSJCuTPP4fAKmeWjYqmVWe6hdkQjkXqxmaFEHxq+fXoL5x81YhLyzKK9pwA5HUVFtEkrcMlTHh1BVzge8iC8LER0u8z8M4rAMQSTPA6Q3fuH15BwdnQE36SjTPEeOnOx3mqcntvD6OqvQ0sqUE2WV5geJJFxFCNke3iSjJHbVJp3f57snqa1G79LVNc0zVh2uhb9XG+ioMH/ucJpvESVpDoxp0MIgHaaZ0iELvebjCBGu1oudvQAyo+wVadXD08xXCER8DNXqDyycu/pToE+AipklJaSjzGlaSSQxAx2dV1C1yvozn1vUL0AmjaMi7Sg6OncRapgsEPJvFs5dfSgwIEBmpt2VWl/mNP9aJNLtKJFfs3DuaqvAoAEyM+3OtDcuTDRNwFxwMUC2snDuaqPAkAEqZq4qJ6fLXKanDSRxAnpkr2tjOk9VUSAggEy69c4LvnE40++QDMKN6OTsY+HcjZwCQQFkZm7YnL770kzTtaIg3YnHjm9ZOHfDr0BIACpmFhcT2e5KW5cyMnEcNoo9i7/28JvPUwgZQCblmlcv+KHMmf64kGC8Au1jFQvnbngUCDlAZmZZeeoXaB8tkkhm4PkRs9L8FQ4FwgaQGbuh0rzjskzT1aIoLEHYcRbO3dAoEHaAiploH732yvQ1ojQyA23jWpRIX2jM57FEBCCT2V5x3jG0j/cbBDFTOdmQhXM3cAUiCpCZqRxH6XClTxMJwa5bcpiFc3foCmgCkJlpd5orUsaaLicieYII9EcWzt3BKxD00u7BJ9X3O9esIW24s4IfZNC3PgOFaloC1caVlpIz6mvuH5wCugHoby7Wdx3AbMcp/3B+3aMAVsN9qFuAWJuz3SgYx6GTU4Y/LBTjL6YAJg4OiyLJr6ubk69bgIqx2C7tLnOZbfihkSkwei/LQBy7J6HDE0lJ0uU1NXMqFB0078QMBkbp5rQ9WDh73YL8pkLsq1uBrbgRWbY+GNsi8x5CMa7sSEgwLt2+/RaPOk3dAlQ2ieDVXXV2+TfcZz266cd275OA+BBuhnXjiFooDf17MAz5AEpcnzWQbqvQwjzPPTjQZwUOvBupFm9teepJtI9/NBoNl2NIrrMaUd+PFT++sI2SJNpqa+dM6Q+eklfdAsRQWyJK4VLlwDvbXE+RUiLVcNZtGnMYi6zyiSRNA8iP1fei20/OiKL4jNGYMH7nztll6lqor3zpFiAzFtuj06gsr8dhPnsL8r6dwsKZi2WPNZYEU6ZIxPvRThxj4dHpkn8lJRkm1tTMfmrHjhmDeoTSPUAGAiVwskC9u1Gtlt2Vf+wiFq64t5YTn91pWjsiOTmDEHENHjuiapMOStlH+PJl4bHAum3bzK/UeRvIHzUAWUYAcn6bt+0gSuSyh6x0GAtX3BdeG3Xc4TQtMRJyNarVHep7+vSTZti1aOrU2ZNqay3vBGJj1AFUMolqdTh2By1vafMcsFk8Vv+Mr3eaPkP7OIMQyYKG8wv/+9pfkw7UFKtGjRoxrq7O8qKynihQm6ISIMssQF5MBXkjzknbVWg5msnCmetwplVdmmi+QhTEx1Gt6mSTDnmTEMOVtbWzH66szD7BbA3UjWqA3Zmm9CZKvB+gfSyxzWtK7Q6Hp7ictNtdpmeTkqVxRBTWob0J+NuujneofrRxB5F2Ltq5WbW1Mw8O9fP9vT82ACJ3aBtF/N2Nn09vwGPHI/7niL78zzHfOirT78Se8mtRGpUjiyPyArTvAe/hjAwzSt2craFONGYA9ghDz8Njx8rWJvenCyye3J7wsz4sstqH8dUbiSDdAWG/8b8fqmvELeOvBOOWGeigrCopmdwRqrjV8cQgwO7sZfgEuRrV6jYcmD6xO7TL43ClvT5sDJmAYaqnsdDqtP/9YK5R6t4xGKRfAdw9b745S+lphu0VywA7RUO1OoP6hP0Fc92r7/3diRS1kiUl5laslisWE4iySecN9b1A/AB3BKMot6KqzHrrrdz/BhLHUD8T8wDPCoJTAXE64MlTpxrwgyKLNuLUQLVQ9nLz11iEfLsoERxxTD5U3xuMH+BOYX5u2dixIyZgFKV8MJ8J1XviBOBZuZRTAvHo8YKr3VNfaPFk+4torzD/57JJpmuwWu5uQDnqf/+n18o0D3kVpXc8Bpz/UlqaHfFlIXEFsBsApVfKglyD0rjJZm36eXc4PJ2bdJzml0eNSMxAj3Vl/5t0yPuSJNyA6rIA8BrVcUTSr9v5wEiIgNKYT9p8uQD53MhEw1+VqSqWrrJJB/7H8LOxJYLg7VXlop27/+23Z21B6euer2Sfi7SLkSZ9vpTfhFB+ViBi1hGCmW6y1FGZ5tADmMHmOz6r0L7UUZZpUHkDBsn3FOU3XdfXW/QYxgH6UcFjx7Ver/xugcXtKLS2pPvd1t0lB9gnks5zRAtoW/tBDAQ8qedV4xxgnwDPBqKTk4wS+RfvCc8t53ibprc4QE3lDz5xDjB4DTWNgQPUVP7gE+cAg9dQ0xg4QE3lDz5xDjB4DTWNgQPUVP7gE+cAg9dQ0xg4QE3lDz5xDjB4DTWNgQPUVP7gE+cAg9dQ0xg4QE3lDz5xDjB4DTWNgQPUVP7gE+cAg9dQ0xg4QE3lDz5xDjB4DTWNgQPUVP7gE9ctQGNisoMfzzwwYN0CfKX8/O/48cxRDJCZzo9nZkr07eq2BPqbqz6eGUeIdO9h8H9fvF1HDUAFjHI8s6PSvGK4ZByH/Qt27GXQfHOJ1l+YqALIxCrZPNqDA+8WYFOlsodhDwuPRzcqATJQ9krTXoCcApA2bLPSbI8es0cLN6oBKoIpW8HsleYy4XxpPPzPAGTEd8lqAY6lGfUAWUYcjrRTKI1PSaI4ESA3sfBYd2MGIANVWmn6CiB/axDFbJTGj1h4rLoxB5CBAsi6SyeZJ+HAgkWoaFtYeKy5MQtQAdV1YMGLBnFYBn6DYjWq1rCclqTllyKmATJhSytTTjhc5ofwY81XAeQ2Fh4LblwAZKBKN5kPAORMSRBn42yXQyw8mt24AshAbXCZtgwbY/6FKJBH8BzyPQuPRjcuASqgSkpIh91lfs6YQHDONnkJf5qcIxrslyZuATLh1pebmvHYsZBQw2SUxl0sPFrcuAfIQNldqfU4Z3sqBgJuA8gjLFzvLgfoR2hDpWnj6AQTRnPEP6PH2up3W3eXHGAfSFaVk9P4+YLliYZEZXz1NZHgnEP+il4F/M8X1VNO/g8k+slcMVd8QwAAAABJRU5ErkJggg==" vertex="1" parent="1">
          <mxGeometry x="340" y="786" width="59.5" height="68" as="geometry" />
        </mxCell>
        <mxCell id="Ntpb4qp-f62NBD71DLnf-63" value="Ubuntu Server" style="swimlane;startSize=20;horizontal=1;containerType=tree;newEdgeStyle={&quot;edgeStyle&quot;:&quot;elbowEdgeStyle&quot;,&quot;startArrow&quot;:&quot;none&quot;,&quot;endArrow&quot;:&quot;none&quot;};" vertex="1" parent="1">
          <mxGeometry x="180" y="900" width="910" height="220" as="geometry" />
        </mxCell>
        <mxCell id="Ntpb4qp-f62NBD71DLnf-64" value="" style="edgeStyle=elbowEdgeStyle;elbow=vertical;sourcePerimeterSpacing=0;targetPerimeterSpacing=0;startArrow=none;endArrow=none;rounded=0;curved=0;" edge="1" parent="Ntpb4qp-f62NBD71DLnf-63" source="Ntpb4qp-f62NBD71DLnf-66" target="Ntpb4qp-f62NBD71DLnf-67">
          <mxGeometry relative="1" as="geometry" />
        </mxCell>
        <mxCell id="Ntpb4qp-f62NBD71DLnf-65" value="" style="edgeStyle=elbowEdgeStyle;elbow=vertical;sourcePerimeterSpacing=0;targetPerimeterSpacing=0;startArrow=none;endArrow=none;rounded=0;curved=0;" edge="1" parent="Ntpb4qp-f62NBD71DLnf-63" source="Ntpb4qp-f62NBD71DLnf-66" target="Ntpb4qp-f62NBD71DLnf-68">
          <mxGeometry relative="1" as="geometry" />
        </mxCell>
        <UserObject label="Provider" treeRoot="1" id="Ntpb4qp-f62NBD71DLnf-66">
          <mxCell style="whiteSpace=wrap;html=1;align=center;treeFolding=1;treeMoving=1;newEdgeStyle={&quot;edgeStyle&quot;:&quot;elbowEdgeStyle&quot;,&quot;startArrow&quot;:&quot;none&quot;,&quot;endArrow&quot;:&quot;none&quot;};" vertex="1" parent="Ntpb4qp-f62NBD71DLnf-63">
            <mxGeometry x="80" y="40" width="120" height="60" as="geometry" />
          </mxCell>
        </UserObject>
        <mxCell id="Ntpb4qp-f62NBD71DLnf-67" value="Region" style="whiteSpace=wrap;html=1;align=center;verticalAlign=middle;treeFolding=1;treeMoving=1;newEdgeStyle={&quot;edgeStyle&quot;:&quot;elbowEdgeStyle&quot;,&quot;startArrow&quot;:&quot;none&quot;,&quot;endArrow&quot;:&quot;none&quot;};" vertex="1" parent="Ntpb4qp-f62NBD71DLnf-63">
          <mxGeometry x="20" y="140" width="100" height="60" as="geometry" />
        </mxCell>
        <mxCell id="Ntpb4qp-f62NBD71DLnf-68" value="Access Key" style="whiteSpace=wrap;html=1;align=center;verticalAlign=middle;treeFolding=1;treeMoving=1;newEdgeStyle={&quot;edgeStyle&quot;:&quot;elbowEdgeStyle&quot;,&quot;startArrow&quot;:&quot;none&quot;,&quot;endArrow&quot;:&quot;none&quot;};" vertex="1" parent="Ntpb4qp-f62NBD71DLnf-63">
          <mxGeometry x="160" y="140" width="100" height="60" as="geometry" />
        </mxCell>
        <UserObject label="VPC" treeRoot="1" id="Ntpb4qp-f62NBD71DLnf-69">
          <mxCell style="whiteSpace=wrap;html=1;align=center;treeFolding=1;treeMoving=1;newEdgeStyle={&quot;edgeStyle&quot;:&quot;elbowEdgeStyle&quot;,&quot;startArrow&quot;:&quot;none&quot;,&quot;endArrow&quot;:&quot;none&quot;};" vertex="1" parent="Ntpb4qp-f62NBD71DLnf-63">
            <mxGeometry x="360" y="40" width="120" height="60" as="geometry" />
          </mxCell>
        </UserObject>
        <mxCell id="Ntpb4qp-f62NBD71DLnf-71" value="" style="edgeStyle=elbowEdgeStyle;rounded=0;orthogonalLoop=1;jettySize=auto;html=1;elbow=vertical;startArrow=none;endArrow=none;" edge="1" source="Ntpb4qp-f62NBD71DLnf-69" target="Ntpb4qp-f62NBD71DLnf-72" parent="Ntpb4qp-f62NBD71DLnf-63">
          <mxGeometry relative="1" as="geometry" />
        </mxCell>
        <UserObject label="Public Subnet" treeRoot="1" id="Ntpb4qp-f62NBD71DLnf-72">
          <mxCell style="whiteSpace=wrap;html=1;align=center;treeFolding=1;treeMoving=1;newEdgeStyle={&quot;edgeStyle&quot;:&quot;elbowEdgeStyle&quot;,&quot;startArrow&quot;:&quot;none&quot;,&quot;endArrow&quot;:&quot;none&quot;};" vertex="1" parent="Ntpb4qp-f62NBD71DLnf-63">
            <mxGeometry x="300" y="140" width="120" height="60" as="geometry" />
          </mxCell>
        </UserObject>
        <mxCell id="Ntpb4qp-f62NBD71DLnf-74" value="" style="edgeStyle=elbowEdgeStyle;rounded=0;orthogonalLoop=1;jettySize=auto;html=1;elbow=vertical;startArrow=none;endArrow=none;" edge="1" source="Ntpb4qp-f62NBD71DLnf-69" target="Ntpb4qp-f62NBD71DLnf-75" parent="Ntpb4qp-f62NBD71DLnf-63">
          <mxGeometry relative="1" as="geometry" />
        </mxCell>
        <UserObject label="Private Subnet" treeRoot="1" id="Ntpb4qp-f62NBD71DLnf-75">
          <mxCell style="whiteSpace=wrap;html=1;align=center;treeFolding=1;treeMoving=1;newEdgeStyle={&quot;edgeStyle&quot;:&quot;elbowEdgeStyle&quot;,&quot;startArrow&quot;:&quot;none&quot;,&quot;endArrow&quot;:&quot;none&quot;};" vertex="1" parent="Ntpb4qp-f62NBD71DLnf-63">
            <mxGeometry x="430.0000000000002" y="140" width="120" height="60" as="geometry" />
          </mxCell>
        </UserObject>
        <UserObject label="VPC" treeRoot="1" id="Ntpb4qp-f62NBD71DLnf-76">
          <mxCell style="whiteSpace=wrap;html=1;align=center;treeFolding=1;treeMoving=1;newEdgeStyle={&quot;edgeStyle&quot;:&quot;elbowEdgeStyle&quot;,&quot;startArrow&quot;:&quot;none&quot;,&quot;endArrow&quot;:&quot;none&quot;};" vertex="1" parent="Ntpb4qp-f62NBD71DLnf-63">
            <mxGeometry x="640" y="40" width="120" height="60" as="geometry" />
          </mxCell>
        </UserObject>
        <mxCell id="Ntpb4qp-f62NBD71DLnf-77" value="" style="edgeStyle=elbowEdgeStyle;rounded=0;orthogonalLoop=1;jettySize=auto;html=1;elbow=vertical;startArrow=none;endArrow=none;" edge="1" parent="Ntpb4qp-f62NBD71DLnf-63" source="Ntpb4qp-f62NBD71DLnf-76" target="Ntpb4qp-f62NBD71DLnf-78">
          <mxGeometry relative="1" as="geometry" />
        </mxCell>
        <UserObject label="Public Subnet" treeRoot="1" id="Ntpb4qp-f62NBD71DLnf-78">
          <mxCell style="whiteSpace=wrap;html=1;align=center;treeFolding=1;treeMoving=1;newEdgeStyle={&quot;edgeStyle&quot;:&quot;elbowEdgeStyle&quot;,&quot;startArrow&quot;:&quot;none&quot;,&quot;endArrow&quot;:&quot;none&quot;};" vertex="1" parent="Ntpb4qp-f62NBD71DLnf-63">
            <mxGeometry x="580" y="140" width="120" height="60" as="geometry" />
          </mxCell>
        </UserObject>
        <mxCell id="Ntpb4qp-f62NBD71DLnf-79" value="" style="edgeStyle=elbowEdgeStyle;rounded=0;orthogonalLoop=1;jettySize=auto;html=1;elbow=vertical;startArrow=none;endArrow=none;" edge="1" parent="Ntpb4qp-f62NBD71DLnf-63" source="Ntpb4qp-f62NBD71DLnf-76" target="Ntpb4qp-f62NBD71DLnf-80">
          <mxGeometry relative="1" as="geometry" />
        </mxCell>
        <UserObject label="Private Subnet" treeRoot="1" id="Ntpb4qp-f62NBD71DLnf-80">
          <mxCell style="whiteSpace=wrap;html=1;align=center;treeFolding=1;treeMoving=1;newEdgeStyle={&quot;edgeStyle&quot;:&quot;elbowEdgeStyle&quot;,&quot;startArrow&quot;:&quot;none&quot;,&quot;endArrow&quot;:&quot;none&quot;};" vertex="1" parent="Ntpb4qp-f62NBD71DLnf-63">
            <mxGeometry x="710.0000000000002" y="140" width="120" height="60" as="geometry" />
          </mxCell>
        </UserObject>
      </root>
    </mxGraphModel>
  </diagram>
</mxfile>
